<svg width="640" height="457" viewBox="0 0 640 457" fill="none" xmlns="http://www.w3.org/2000/svg">
<path d="M195.322 449.504H305.71V455.526H195.322V449.504Z" fill="#D1D1D1" stroke="#263238" stroke-width="1.76" stroke-miterlimit="10" stroke-linecap="round" stroke-linejoin="round"/>
<path d="M193.165 198.315L203.613 213.568C203.613 213.568 219.285 300.73 221.374 321.975C223.464 343.22 223.464 455.44 223.464 455.44H128.385C128.385 455.44 148.236 337.773 146.147 327.422C144.058 317.071 136.743 207.574 136.743 207.574L139.878 199.947L193.165 198.315Z" fill="#FFD5D0" stroke="#263238" stroke-width="1.76" stroke-miterlimit="10" stroke-linecap="round" stroke-linejoin="round"/>
<path d="M146.147 327.423C145.439 323.916 144.132 309.027 142.711 290.874C155.137 300.058 172.316 310.368 185.851 309.447C201.275 308.397 211.311 296.807 216.526 288.635C218.849 302.972 220.739 315.52 221.374 321.976C223.464 343.222 223.464 455.442 223.464 455.442H128.385C128.385 455.442 148.236 337.773 146.147 327.423Z" fill="white" stroke="#263238" stroke-width="1.76" stroke-miterlimit="10" stroke-linecap="round" stroke-linejoin="round"/>
<path d="M193.166 198.315C193.166 198.315 216.151 311.626 217.196 337.775C218.242 363.924 217.719 455.442 217.719 455.442H273.617L272.05 396.608L298.17 429.838L335.262 390.614C335.262 390.614 297.649 311.079 293.469 300.185C289.289 289.29 279.365 251.157 277.274 245.708C275.185 240.261 279.886 237.537 271.005 234.269C262.124 231 193.166 198.315 193.166 198.315Z" fill="#F36719" stroke="#263238" stroke-width="1.76" stroke-miterlimit="10" stroke-linecap="round" stroke-linejoin="round"/>
<path d="M198.389 198.86C198.389 198.86 203.613 196.137 208.838 208.121C214.062 220.105 224.511 251.157 229.734 260.417C234.958 269.678 228.689 269.678 225.554 267.5C222.42 265.321 216.151 253.337 214.062 254.97C211.973 256.604 206.747 267.5 206.747 267.5L193.686 203.762C193.686 203.762 195.254 199.949 198.389 198.86Z" fill="#F36719" stroke="#263238" stroke-width="1.76" stroke-miterlimit="10" stroke-linecap="round" stroke-linejoin="round"/>
<path d="M263.166 286.029C261.907 279.157 261.078 274.582 261.078 274.582" stroke="#263238" stroke-width="1.76" stroke-miterlimit="10" stroke-linecap="round" stroke-linejoin="round"/>
<path d="M275.183 389.526C275.183 389.526 277.272 357.93 274.66 346.49C273.059 339.48 268.319 314.05 264.889 295.415" stroke="#263238" stroke-width="1.76" stroke-miterlimit="10" stroke-linecap="round" stroke-linejoin="round"/>
<path d="M303.403 387.487C303.403 387.487 306.308 380.082 310.504 380.082C314.7 380.082 336.005 384.121 340.2 387.487C344.396 390.853 354.404 415.761 354.404 420.474C354.404 425.187 342.782 445.383 336.973 448.413C331.163 451.443 312.44 448.077 312.44 448.077C312.44 448.077 302.757 439.662 301.789 438.653C300.821 437.643 291.137 414.418 293.397 403.647C295.657 392.873 303.403 387.487 303.403 387.487Z" fill="white" stroke="#263238" stroke-width="1.76" stroke-miterlimit="10" stroke-linecap="round" stroke-linejoin="round"/>
<path d="M187.98 225.853L197.395 202.292L201.161 194.439C201.161 194.439 201.161 194.439 210.575 194.439C219.989 194.439 225.011 196.403 228.149 190.511C231.287 184.62 235.68 147.97 235.68 147.97C235.68 147.97 239.446 146.661 243.211 144.042C246.977 141.423 246.349 134.879 240.699 133.57C235.05 132.261 229.402 122.445 227.519 113.936C225.635 105.428 228.147 96.9194 219.359 83.8302C210.573 70.741 198.019 62.886 198.019 62.886C198.019 62.886 176.679 51.1053 155.968 62.2308C135.256 73.3562 116.428 97.5728 115.171 130.298C113.916 163.023 138.394 183.965 138.394 183.965L143.532 229.909" fill="#FFD5D0"/>
<path d="M187.98 225.853L197.395 202.292L201.161 194.439C201.161 194.439 201.161 194.439 210.575 194.439C219.989 194.439 225.011 196.403 228.149 190.511C231.287 184.62 235.68 147.97 235.68 147.97C235.68 147.97 239.446 146.661 243.211 144.042C246.977 141.423 246.349 134.879 240.699 133.57C235.05 132.261 229.402 122.445 227.519 113.936C225.635 105.428 228.147 96.9194 219.359 83.8302C210.573 70.741 198.019 62.886 198.019 62.886C198.019 62.886 176.679 51.1053 155.968 62.2308C135.256 73.3562 116.428 97.5728 115.171 130.298C113.916 163.023 138.394 183.965 138.394 183.965L143.532 229.909" stroke="#263238" stroke-width="1.76" stroke-miterlimit="10" stroke-linecap="round" stroke-linejoin="round"/>
<path d="M201.161 194.439L173.833 188.935L195.738 207.299L201.161 194.439Z" fill="#263238" stroke="#263238" stroke-width="1.76" stroke-miterlimit="10" stroke-linecap="round" stroke-linejoin="round"/>
<path d="M223.228 154.001C223.228 154.001 212.92 154.897 205.617 145.491" stroke="#263238" stroke-width="1.76" stroke-miterlimit="10" stroke-linecap="round" stroke-linejoin="round"/>
<path d="M216.455 120.76C217.244 123.869 219.183 126.031 220.788 125.589C222.393 125.147 223.057 122.267 222.268 119.158C221.48 116.049 219.54 113.887 217.935 114.329C216.33 114.774 215.668 117.651 216.455 120.76Z" fill="#263238"/>
<path d="M221.081 106.074C221.081 106.074 214.637 100.698 209.055 108.761" stroke="#263238" stroke-width="1.76" stroke-miterlimit="10" stroke-linecap="round" stroke-linejoin="round"/>
<path d="M101.994 45.385C101.994 45.385 119.567 22.477 133.376 14.6238C147.185 6.77066 144.674 17.2409 144.674 17.2409C144.674 17.2409 187.98 -2.39291 193.001 2.84315C198.023 8.07921 184.216 10.6963 184.216 10.6963C184.216 10.6963 223.756 12.6601 235.681 19.2047C247.607 25.7493 233.798 30.3302 233.798 30.3302C233.798 30.3302 252.627 44.7279 248.234 48.0003C243.841 51.2726 231.915 47.3451 231.915 47.3451C231.915 47.3451 248.862 68.9427 241.957 74.1787C235.053 79.4148 223.129 71.5616 223.129 71.5616C223.129 71.5616 235.055 94.4696 230.034 93.8144C225.012 93.1592 211.205 89.2336 211.205 89.2336C211.205 89.2336 213.088 97.0867 208.067 97.7419C203.046 98.3971 196.141 93.1611 196.141 93.1611C196.141 93.1611 202.417 116.722 195.513 118.686C188.608 120.65 175.428 112.142 175.428 112.142C175.428 112.142 186.725 146.175 184.842 157.956C182.959 169.736 172.29 160.575 172.29 160.575C172.29 160.575 168.523 185.445 161.621 187.408C154.716 189.372 152.835 183.481 152.835 183.481C152.835 183.481 153.463 199.842 147.187 202.461C140.911 205.08 131.497 195.261 131.497 195.261C131.497 195.261 127.73 210.314 122.082 208.351C116.435 206.387 112.668 197.225 112.668 197.225C112.668 197.225 113.296 208.351 107.019 203.77C100.742 199.189 95.0928 182.826 95.0928 182.826C95.0928 182.826 94.4645 195.261 83.1671 187.406C71.8697 179.553 71.8698 159.918 71.8698 159.918C71.8698 159.918 64.9653 166.462 61.2007 156.645C57.4343 146.828 62.4556 127.848 62.4556 127.848C62.4556 127.848 51.7865 130.465 53.6697 123.92C55.5529 117.376 59.9458 99.7038 59.9458 99.7038C59.9458 99.7038 48.0201 105.595 49.9033 93.8126C51.7865 82.0319 79.4025 61.0877 79.4025 61.0877C79.4025 61.0877 68.1052 47.3432 75.0096 45.3795C81.9141 43.4157 93.8381 48.6518 93.8381 48.6518C93.8381 48.6518 92.5831 29.0179 98.231 32.2902C103.877 35.5681 101.994 45.385 101.994 45.385Z" fill="#263238" stroke="#263238" stroke-width="1.76" stroke-miterlimit="10" stroke-linecap="round" stroke-linejoin="round"/>
<path d="M140.401 205.941C140.401 205.941 153.462 321.43 153.982 337.773C154.505 354.116 142.49 455.44 142.49 455.44H70.3968L71.9649 400.42L6.66385 405.322C6.66385 405.322 26.8756 325.33 34.1884 307.896C41.5029 290.465 49.3385 235.988 50.3839 233.264C51.4293 230.541 126.296 208.664 129.953 205.396C133.609 202.129 140.923 195.592 140.401 205.941Z" fill="#F36719" stroke="#263238" stroke-width="1.76" stroke-miterlimit="10" stroke-linecap="round" stroke-linejoin="round"/>
<path d="M23.9625 388.065L71.5563 390.28L74.9566 446.113C74.9566 446.113 47.7611 450.543 34.5876 452.76C21.414 454.976 9.94059 450.988 5.26781 443.456C0.593254 435.922 1.44338 424.402 2.71761 418.641C3.99185 412.88 11.2166 391.611 11.2166 391.611" fill="#F36719"/>
<path d="M23.9625 388.065L71.5563 390.28L74.9566 446.113C74.9566 446.113 47.7611 450.543 34.5876 452.76C21.414 454.976 9.94059 450.988 5.2678 443.456C0.593256 435.922 1.44338 424.402 2.71762 418.641C3.99185 412.88 11.2166 391.611 11.2166 391.611" stroke="#263238" stroke-width="1.76" stroke-miterlimit="10" stroke-linecap="round" stroke-linejoin="round"/>
<path d="M129.951 205.397C129.951 205.397 121.593 237.539 121.07 253.882C120.548 270.225 123.16 275.127 126.817 269.68C130.474 264.233 135.698 256.605 135.698 256.605L146.668 266.956L139.876 199.95C139.876 199.95 130.474 199.403 129.951 205.397Z" fill="#F36719" stroke="#263238" stroke-width="1.76" stroke-miterlimit="10" stroke-linecap="round" stroke-linejoin="round"/>
<path d="M86.0699 311.625C86.0699 311.625 87.1153 357.929 84.5035 362.288C81.8917 366.647 63.6071 405.323 63.6071 405.323" stroke="#263238" stroke-width="1.76" stroke-miterlimit="10" stroke-linecap="round" stroke-linejoin="round"/>
<path d="M70.953 278.335C71.8013 281.085 72.6145 283.869 73.3677 286.653" stroke="#263238" stroke-width="1.76" stroke-miterlimit="10" stroke-linecap="round" stroke-linejoin="round"/>
<path d="M55.0845 236.535C55.0845 236.535 62.0752 251.777 68.3743 270.372" stroke="#263238" stroke-width="1.76" stroke-miterlimit="10" stroke-linecap="round" stroke-linejoin="round"/>
<path d="M92.3772 393.826L89.4028 387.179C89.4028 387.179 76.2292 380.975 70.7064 380.089C65.1818 379.202 44.361 400.472 41.8107 407.561C39.2605 414.651 46.4853 435.92 49.0338 441.239C51.584 446.555 67.3061 449.657 74.955 449.657C82.604 449.657 97.9018 439.908 100.026 435.92C102.15 431.934 92.3772 393.826 92.3772 393.826Z" fill="white" stroke="#263238" stroke-width="1.76" stroke-miterlimit="10" stroke-linecap="round" stroke-linejoin="round"/>
<path d="M81.3684 436.375C81.3684 436.375 71.706 428.456 74.3179 412.658C76.9297 396.859 84.8285 391.732 84.8285 391.732L167.566 376.451C167.566 376.451 205.179 360.108 207.792 360.653C210.404 361.198 231.301 382.988 231.301 386.257C231.301 389.526 228.689 416.218 228.689 416.218C228.689 416.218 227.21 417.64 224.98 416.644C224.98 416.644 224.98 422.291 222.432 422.623C219.884 422.955 218.928 421.294 218.928 421.294C218.928 421.294 217.335 425.613 214.149 424.948C210.964 424.284 207.46 419.966 207.46 419.966C207.46 419.966 206.823 424.616 204.593 422.291C202.363 419.966 194.082 408.341 194.082 408.341C194.082 408.341 177.837 413.324 170.829 411.995C163.821 410.666 154.266 406.348 154.266 406.348L87.3753 437.57C87.3753 437.57 82.6848 437.838 81.3684 436.375Z" fill="#FFD5D0" stroke="#263238" stroke-width="1.76" stroke-miterlimit="10" stroke-linecap="round" stroke-linejoin="round"/>
<path d="M207.462 419.966C207.462 419.966 205.55 410 204.276 406.68C203.002 403.359 200.453 402.03 199.179 400.701C197.905 399.372 183.253 389.741 183.253 389.741" stroke="#263238" stroke-width="1.76" stroke-miterlimit="10" stroke-linecap="round" stroke-linejoin="round"/>
<path d="M195.039 378.447C195.039 378.447 213.196 395.719 214.151 399.705C215.107 403.691 218.93 421.295 218.93 421.295" stroke="#263238" stroke-width="1.76" stroke-miterlimit="10" stroke-linecap="round" stroke-linejoin="round"/>
<path d="M224.98 416.644C224.98 416.644 222.113 392.064 221.476 390.403C220.839 388.742 205.868 370.806 205.868 370.806" stroke="#263238" stroke-width="1.76" stroke-miterlimit="10" stroke-linecap="round" stroke-linejoin="round"/>
<path d="M290.169 382.774C290.169 382.774 315.992 391.526 320.833 393.881C325.675 396.238 332.777 404.316 335.036 410.711C337.296 417.107 337.618 431.917 328.903 439.994C320.187 448.073 309.536 445.381 301.788 441.341C294.041 437.302 277.58 406.671 277.58 406.671L290.169 382.774Z" fill="#FFD5D0" stroke="#263238" stroke-width="1.76" stroke-miterlimit="10" stroke-linecap="round" stroke-linejoin="round"/>
<path d="M273.384 375.034L264.022 387.152C264.022 387.152 254.017 393.21 252.725 395.231C251.433 397.25 247.561 413.07 246.915 415.091C246.269 417.109 250.143 422.832 253.371 420.477C256.599 418.121 259.181 407.349 259.826 405.331C260.472 403.312 264.99 400.955 267.25 400.618C269.51 400.282 276.934 375.709 276.934 375.709L273.384 375.034Z" fill="#FFD5D0" stroke="#263238" stroke-width="1.76" stroke-miterlimit="10" stroke-linecap="round" stroke-linejoin="round"/>
<path d="M277.258 368.975C277.258 368.975 285.649 369.649 286.295 372.005C286.941 374.362 281.775 393.884 277.903 400.616C274.03 407.348 272.094 409.368 269.51 409.368C266.928 409.368 265.96 406.338 266.282 404.319C266.604 402.301 272.738 379.749 273.384 375.036C274.03 370.323 274.998 368.64 277.258 368.975Z" fill="#FFD5D0" stroke="#263238" stroke-width="1.76" stroke-miterlimit="10" stroke-linecap="round" stroke-linejoin="round"/>
<path d="M285.65 376.043C285.65 376.043 294.687 380.082 295.333 382.775C295.979 385.467 286.296 402.97 284.682 406C283.068 409.03 276.934 413.742 275.644 413.406C274.352 413.07 272.738 410.713 273.384 408.693C274.03 406.674 274.998 404.991 274.998 404.991C274.998 404.991 279.518 394.555 281.454 390.854C283.39 387.152 285.65 376.043 285.65 376.043Z" fill="#FFD5D0" stroke="#263238" stroke-width="1.76" stroke-miterlimit="10" stroke-linecap="round" stroke-linejoin="round"/>
<path d="M294.687 385.805C294.687 385.805 301.466 392.537 301.466 395.903C301.466 399.269 292.105 411.723 289.201 413.07C286.295 414.417 282.099 416.772 279.517 416.1C276.935 415.428 275.644 413.408 275.644 413.408L284.037 408.695L294.687 385.805Z" fill="#FFD5D0" stroke="#263238" stroke-width="1.76" stroke-miterlimit="10" stroke-linecap="round" stroke-linejoin="round"/>
<path d="M300.499 399.606C300.499 399.606 303.404 406.338 302.434 408.694C301.466 411.051 292.429 420.139 289.199 421.822C285.972 423.505 282.42 425.862 281.776 423.169C281.13 420.477 286.94 415.428 286.94 415.428L289.199 413.071L300.499 399.606Z" fill="#FFD5D0" stroke="#263238" stroke-width="1.76" stroke-miterlimit="10" stroke-linecap="round" stroke-linejoin="round"/>
<path d="M614.051 7.60571H355.421C343.51 7.60571 333.852 17.7291 333.852 30.2164V85.1706L300.914 114.767L333.852 111.555V136.398C333.852 148.886 343.508 159.009 355.421 159.009H614.051C625.962 159.009 635.62 148.886 635.62 136.398V30.2164C635.618 17.7291 625.962 7.60571 614.051 7.60571Z" fill="#263238" stroke="#263238" stroke-width="1.408" stroke-miterlimit="10" stroke-linecap="round" stroke-linejoin="round"/>
<path d="M617.091 1.26294H358.462C346.551 1.26294 336.893 11.3864 336.893 23.8736V78.8278L303.953 108.424L336.893 105.212V130.056C336.893 142.543 346.549 152.666 358.462 152.666H617.091C629.003 152.666 638.661 142.543 638.661 130.056V23.8736C638.659 11.3864 629.003 1.26294 617.091 1.26294Z" fill="white" stroke="#263238" stroke-width="1.408" stroke-miterlimit="10" stroke-linecap="round" stroke-linejoin="round"/>
<path d="M388.343 42.4583H374.818V134.601H388.343V42.4583Z" fill="#F36719" stroke="#263238" stroke-width="1.408" stroke-miterlimit="10" stroke-linecap="round" stroke-linejoin="round"/>
<path d="M409.597 83.5925H396.072V134.602H409.597V83.5925Z" fill="#F36719" stroke="#263238" stroke-width="1.408" stroke-miterlimit="10" stroke-linecap="round" stroke-linejoin="round"/>
<path d="M430.851 63.0251H417.325V134.601H430.851V63.0251Z" fill="#F36719" stroke="#263238" stroke-width="1.408" stroke-miterlimit="10" stroke-linecap="round" stroke-linejoin="round"/>
<path d="M452.104 104.159H438.579V134.601H452.104V104.159Z" fill="#F36719" stroke="#263238" stroke-width="1.408" stroke-miterlimit="10" stroke-linecap="round" stroke-linejoin="round"/>
<path d="M379.389 24.7209L402.984 47.8778L424.498 35.5755L443.805 71.0229" stroke="#263238" stroke-width="4.22399" stroke-linecap="round" stroke-linejoin="round"/>
<path d="M436.97 72.7057L448.594 79.8178L448.692 65.7639L436.97 72.7057Z" fill="#263238"/>
<path d="M543.103 65.1707H529.578V134.602H543.103V65.1707Z" fill="#F36719" stroke="#263238" stroke-width="1.408" stroke-miterlimit="10" stroke-linecap="round" stroke-linejoin="round"/>
<path d="M564.357 59.0601H550.832V134.602H564.357V59.0601Z" fill="#F36719" stroke="#263238" stroke-width="1.408" stroke-miterlimit="10" stroke-linecap="round" stroke-linejoin="round"/>
<path d="M585.61 44.3967H572.085V134.602H585.61V44.3967Z" fill="#F36719" stroke="#263238" stroke-width="1.408" stroke-miterlimit="10" stroke-linecap="round" stroke-linejoin="round"/>
<path d="M606.864 39.509H593.339V134.602H606.864V39.509Z" fill="#F36719" stroke="#263238" stroke-width="1.408" stroke-miterlimit="10" stroke-linecap="round" stroke-linejoin="round"/>
<path d="M536.925 50.6483L559.132 47.7529L577.87 35.3523L594.665 24.229" stroke="#263238" stroke-width="4.22399" stroke-linecap="round" stroke-linejoin="round"/>
<path d="M596.614 31.2648L602.854 18.8069L589.387 19.3986L596.614 31.2648Z" fill="#263238"/>
<path d="M521.193 97.081L478.258 73.6936V86.4642H461.794V107.698H478.258V120.468L521.193 97.081Z" fill="#263238"/>
<path d="M317.027 302.208H538.719L524.979 455.526H303.287L317.027 302.208Z" fill="#D1D1D1" stroke="#263238" stroke-width="1.76" stroke-miterlimit="10" stroke-linecap="round" stroke-linejoin="round"/>
</svg>
