<svg width="666" height="453" viewBox="0 0 666 453" fill="none" xmlns="http://www.w3.org/2000/svg">
<path d="M538.76 287.295H489.316V452.494H538.76V287.295Z" fill="#593290"/>
<path d="M632.129 232.723H582.686V452.492H632.129V232.723Z" fill="#593290"/>
<path d="M278.478 375.17H229.034V452.494H278.478V375.17Z" fill="#593290"/>
<path d="M360.28 352.097H310.837V452.492H360.28V352.097Z" fill="#593290"/>
<path d="M445.057 322.896H395.614V452.494H445.057V322.896Z" fill="#593290"/>
<path d="M517.082 217.865L445.576 188.297C422.637 190.386 415.63 215.977 420.073 232.211C409.547 229.296 397.464 234.153 391.573 243.664C385.685 253.175 386.453 266.597 393.382 275.321C380.823 278.898 373.146 294.944 377.989 307.486C382.832 320.029 399.065 326.132 410.529 319.719C418.093 315.487 423.183 307.044 431.311 304.142C438.932 301.42 447.214 304.242 455.24 304.999C475.177 306.88 494.989 295.046 506.019 277.713C517.052 260.379 519.997 238.416 517.082 217.865Z" fill="#FFE0CF"/>
<path d="M471.316 199.52C464.522 203.248 458.478 208.42 453.604 214.584C450.419 218.612 454.094 224.53 458.963 223.247L459.092 223.213C452.71 230.41 446.784 238.045 441.362 246.046C437.898 251.156 442.445 257.968 448.265 256.365C471.069 250.086 491.653 235.069 504.696 214.628L471.316 199.52Z" fill="#FF762F"/>
<g opacity="0.3">
<path d="M469.677 209.253C468.524 209.903 467.339 210.58 466.518 211.64C465.696 212.7 465.319 214.254 465.96 215.444C466.918 217.22 469.586 217.406 470.457 219.231C471.382 221.168 469.659 223.289 468.091 224.713C466.433 226.218 464.773 227.725 463.116 229.23C461.896 230.337 460.552 231.856 461.032 233.464C461.564 235.242 463.846 235.562 465.628 235.355C473.885 234.39 481.525 228.9 485.303 221.219L469.677 209.253Z" fill="black"/>
</g>
<path d="M583.261 179.421C583.278 179.497 583.308 179.67 583.355 179.934C588.707 209.923 580.596 240.805 561.405 263.904L549.368 278.392L538.248 233.596L583.261 179.421Z" fill="#FF762F"/>
<path d="M583.261 179.421C583.258 179.428 583.185 179.524 583.039 179.702C582.882 179.895 582.672 180.154 582.399 180.489C581.822 181.192 580.993 182.201 579.925 183.503C577.756 186.137 574.615 189.951 570.66 194.756C562.74 204.348 551.554 217.889 538.441 233.769L538.495 233.532C541.621 246.102 545.054 259.905 548.649 274.361C548.986 275.719 549.322 277.07 549.633 278.323L549.16 278.209C551.559 275.323 553.925 272.475 556.259 269.67C558.57 266.851 560.939 264.139 563.074 261.342C567.413 255.793 571.013 249.974 573.926 244.167C576.866 238.367 579.018 232.531 580.633 226.97C581.509 224.207 582.058 221.454 582.679 218.837C583.136 216.184 583.677 213.653 583.922 211.198C585.184 201.401 584.85 193.371 584.315 187.903C584.129 185.153 583.72 183.054 583.55 181.615C583.385 180.34 583.305 179.746 583.261 179.421C583.261 179.421 583.308 179.585 583.388 179.968C583.451 180.357 583.543 180.897 583.659 181.593C583.863 183.027 584.306 185.126 584.525 187.877C585.125 193.349 585.518 201.404 584.301 211.244C584.068 213.714 583.536 216.255 583.089 218.923C582.474 221.554 581.935 224.322 581.064 227.1C579.461 232.692 577.314 238.565 574.371 244.402C571.456 250.248 567.847 256.104 563.489 261.689C561.337 264.51 558.985 267.212 556.67 270.036C554.34 272.844 551.974 275.692 549.577 278.58L549.235 278.993L549.104 278.465C548.793 277.212 548.456 275.861 548.119 274.502C544.538 260.044 541.118 246.236 538.003 233.664L537.97 233.53L538.057 233.425C551.324 217.555 562.636 204.02 570.648 194.434C574.623 189.694 577.777 185.932 579.955 183.335C581.019 182.069 581.846 181.087 582.42 180.406C582.689 180.088 582.896 179.844 583.051 179.661C583.192 179.492 583.263 179.414 583.261 179.421Z" fill="#201136"/>
<path d="M504.074 108.575C504.001 108.57 503.834 108.563 503.577 108.553C474.607 107.49 446.745 120.187 427.816 142.971L415.943 157.26L459.675 162.012L504.074 108.575Z" fill="#FF762F"/>
<path d="M504.074 108.575C504.081 108.572 504.016 108.655 503.881 108.822C503.731 109.005 503.533 109.252 503.274 109.569C502.716 110.251 501.913 111.228 500.877 112.489C498.751 115.071 495.674 118.811 491.794 123.521C483.945 133.027 472.863 146.445 459.869 162.183L459.782 162.288L459.65 162.273C447.377 160.947 433.898 159.488 419.786 157.961C418.46 157.817 417.142 157.673 415.918 157.541L415.397 157.485L415.739 157.072C418.105 154.226 420.44 151.416 422.741 148.648C425.06 145.895 427.259 143.12 429.599 140.532C434.216 135.312 439.198 130.804 444.271 127.005C449.331 123.179 454.541 120.152 459.565 117.717C462.051 116.432 464.578 115.484 466.96 114.48C469.404 113.639 471.716 112.73 474.005 112.137C483.081 109.474 490.711 108.704 495.943 108.519C498.563 108.34 500.599 108.484 501.977 108.484C502.648 108.502 503.168 108.514 503.542 108.524C503.912 108.55 504.074 108.575 504.074 108.575C503.759 108.577 503.189 108.585 501.974 108.597C500.597 108.636 498.565 108.526 495.952 108.736C490.735 108.99 483.135 109.818 474.108 112.52C471.834 113.124 469.534 114.042 467.106 114.888C464.738 115.899 462.228 116.852 459.756 118.142C454.762 120.585 449.587 123.612 444.563 127.43C439.525 131.222 434.576 135.712 429.992 140.911C427.673 143.479 425.467 146.269 423.153 149.02C420.852 151.788 418.519 154.6 416.155 157.446L415.977 156.977C417.201 157.109 418.519 157.253 419.845 157.397C433.957 158.938 447.433 160.409 459.706 161.748L459.488 161.838C472.514 146.257 483.622 132.969 491.49 123.556C495.434 118.853 498.565 115.12 500.727 112.542C501.795 111.272 502.624 110.285 503.201 109.598C503.476 109.274 503.688 109.024 503.848 108.836C503.99 108.668 504.067 108.577 504.074 108.575Z" fill="#201136"/>
<path d="M661.532 2.14073C655.265 -3.46608 629.769 3.03978 595.725 21.5484C562.206 39.7736 541.582 63.4346 541.582 63.4346L441.138 184.329L471.836 211.794L489.628 227.71L520.327 255.175L611.476 145.47C620.383 134.75 628.333 123.206 635.114 110.925C640.943 100.366 647.519 87.0125 652.724 72.5423C666.111 35.3248 667.799 7.74754 661.532 2.14073Z" fill="#F5F5F5"/>
<path d="M535.835 234.821C535.736 234.941 518.02 219.445 496.265 200.213C474.504 180.974 456.95 165.287 457.049 165.167C457.147 165.048 474.862 180.542 496.621 199.781C518.375 219.012 535.934 234.702 535.835 234.821Z" fill="#201136"/>
<path d="M532.438 238.174C532.34 238.294 514.623 222.795 492.869 203.563C471.107 184.324 453.553 168.637 453.652 168.518C453.751 168.398 471.465 183.892 493.224 203.131C514.979 222.363 532.537 238.054 532.438 238.174Z" fill="#201136"/>
<path d="M529.29 242.095C529.191 242.215 511.474 226.719 489.72 207.485C467.958 188.245 450.404 172.559 450.503 172.439C450.602 172.319 468.316 187.813 490.075 207.052C511.83 226.286 529.388 241.976 529.29 242.095Z" fill="#201136"/>
<path d="M526.139 246.019C526.04 246.139 508.323 230.643 486.569 211.408C464.808 192.169 447.253 176.482 447.352 176.363C447.451 176.243 465.165 191.737 486.924 210.976C508.676 230.208 526.235 245.899 526.139 246.019Z" fill="#201136"/>
<path d="M522.987 249.94C522.888 250.06 505.171 234.561 483.417 215.329C461.655 196.09 444.101 180.403 444.2 180.283C444.299 180.164 462.013 195.658 483.772 214.897C505.527 234.128 523.086 249.82 522.987 249.94Z" fill="#201136"/>
<path d="M543.748 144.227C543.765 144.234 543.635 144.451 543.367 144.867C543.108 145.297 542.654 145.846 542.098 146.591C540.97 148.062 539.292 150.151 537.196 152.711C533.008 157.832 527.143 164.839 520.624 172.532C514.1 180.23 508.155 187.161 503.83 192.157C501.69 194.607 499.943 196.611 498.684 198.052C498.097 198.704 497.626 199.229 497.264 199.635C496.934 199.992 496.755 200.175 496.741 200.16C496.727 200.148 496.88 199.94 497.181 199.559C497.525 199.137 497.97 198.589 498.526 197.905C499.752 196.435 501.455 194.392 503.541 191.891C507.844 186.797 513.718 179.841 520.212 172.158C526.71 164.484 532.593 157.539 536.902 152.45C538.995 149.956 540.702 147.92 541.931 146.452C542.508 145.734 542.997 145.196 543.273 144.806C543.567 144.42 543.732 144.219 543.748 144.227Z" fill="#201136"/>
<path d="M583.261 179.421C583.162 179.541 565.492 163.925 543.802 144.546C522.101 125.163 504.597 109.357 504.696 109.239C504.794 109.12 522.459 124.733 544.159 144.116C565.85 163.492 583.36 179.301 583.261 179.421Z" fill="#201136"/>
<path d="M516.969 189.775C516.969 189.745 517.256 189.704 517.75 189.85C518.238 189.995 518.932 190.385 519.476 191.177C520.02 191.934 520.366 193.239 519.806 194.456C519.295 195.631 518.04 196.667 516.531 196.61C515.022 196.513 513.868 195.357 513.47 194.136C513.027 192.87 513.494 191.605 514.106 190.906C514.72 190.171 515.45 189.853 515.947 189.76C516.453 189.662 516.733 189.736 516.731 189.765C516.731 189.814 516.455 189.821 516.001 189.975C515.554 190.124 514.92 190.473 514.405 191.162C513.891 191.829 513.548 192.904 513.946 193.962C514.303 194.998 515.325 195.973 516.557 196.044C517.788 196.095 518.894 195.228 519.349 194.233C519.843 193.222 519.601 192.118 519.153 191.399C518.706 190.664 518.108 190.251 517.677 190.058C517.239 189.858 516.964 189.824 516.969 189.775Z" fill="#201136"/>
<path d="M536.799 166.781C536.799 166.752 537.086 166.708 537.581 166.857C538.068 167.001 538.763 167.389 539.306 168.183C539.85 168.94 540.196 170.245 539.636 171.462C539.125 172.637 537.87 173.673 536.361 173.619C534.852 173.521 533.698 172.366 533.3 171.144C532.858 169.879 533.324 168.613 533.936 167.914C534.553 167.179 535.28 166.861 535.777 166.769C536.283 166.671 536.564 166.744 536.561 166.773C536.561 166.822 536.286 166.83 535.831 166.984C535.384 167.135 534.748 167.482 534.235 168.171C533.722 168.838 533.378 169.913 533.776 170.971C534.134 172.007 535.158 172.981 536.387 173.052C537.618 173.103 538.725 172.236 539.179 171.242C539.674 170.23 539.431 169.126 538.984 168.408C538.537 167.673 537.939 167.26 537.508 167.067C537.067 166.866 536.794 166.83 536.799 166.781Z" fill="#201136"/>
<g opacity="0.3">
<path d="M460.836 160.614C460.836 160.614 490.763 126.224 504.074 108.575C493.991 113.859 482.532 119.984 474.475 128.198C466.336 136.499 461.194 148.78 460.836 160.614Z" fill="black"/>
</g>
<path d="M441.932 271.116C439.067 270.689 436.079 272.963 435.615 275.927C435.149 278.89 437.287 282.032 440.133 282.569C442.98 283.107 446.047 280.947 446.617 278.003C447.187 275.059 445.165 271.839 442.337 271.192" fill="#FF762F"/>
<path d="M611.092 107.248C623.249 97.121 625.193 78.6845 615.433 66.0691C605.674 53.4538 587.907 51.4369 575.749 61.5641C563.592 71.6913 561.648 90.1277 571.408 102.743C581.167 115.358 598.934 117.375 611.092 107.248Z" fill="white"/>
<path d="M621.451 88.0511C621.276 88.0438 621.757 85.459 621.196 80.871C620.636 76.3709 618.6 69.6012 612.881 63.8282C610.041 61.0041 606.352 58.4388 601.912 57.0292C597.5 55.6513 592.395 55.1456 587.331 56.4331C584.791 56.9975 582.284 58.0211 579.924 59.4185C577.544 60.7793 575.319 62.5627 573.403 64.7126C569.469 68.9318 566.846 74.6681 566.043 80.827C565.351 87.0031 566.523 93.2377 569.332 98.3364C570.676 100.914 572.409 103.213 574.392 105.143C576.343 107.102 578.531 108.736 580.857 109.936C585.46 112.484 590.526 113.303 595.129 113.1C599.767 112.87 603.955 111.333 607.379 109.325C614.296 105.199 617.881 99.1621 619.497 94.9454C621.13 90.6432 621.281 88.0145 621.451 88.0511C621.493 88.056 621.425 88.6961 621.258 89.9152C621.187 90.5284 621.069 91.2808 620.824 92.1481C620.608 93.0203 620.377 94.039 619.939 95.1238C618.435 99.4651 614.889 105.744 607.814 110.102C604.313 112.225 599.998 113.869 595.19 114.153C590.42 114.412 585.153 113.601 580.343 110.979C577.914 109.745 575.628 108.055 573.584 106.022C571.512 104.021 569.697 101.63 568.284 98.9447C565.341 93.6335 564.101 87.1179 564.828 80.6706C565.662 74.2405 568.416 68.2453 572.532 63.8551C574.54 61.6173 576.866 59.7654 579.352 58.3582C581.817 56.9144 584.435 55.8614 587.082 55.2898C592.367 53.9852 597.662 54.5495 602.222 56.0227C606.814 57.53 610.604 60.2296 613.491 63.1857C619.308 69.2225 621.251 76.217 621.674 80.8099C621.841 81.9728 621.82 83.0184 621.823 83.9199C621.853 84.8214 621.79 85.5812 621.712 86.1944C621.58 87.4208 621.493 88.056 621.451 88.0511Z" fill="#201136"/>
<path d="M661.532 2.14085C655.264 -3.46596 629.769 3.0399 595.725 21.5485L652.722 72.54C666.111 35.3249 667.799 7.74767 661.532 2.14085Z" fill="#FF762F"/>
<path d="M661.532 2.14109C661.532 2.14109 661.881 2.50022 662.53 3.25513C663.088 4.07844 663.743 5.43677 664.254 7.33991C665.238 11.1608 665.478 17.0437 664.8 24.5073C663.361 39.4294 658.323 60.8257 647.926 85.7644C642.563 98.141 635.954 111.458 627.304 124.834C622.96 131.501 618.12 138.178 612.74 144.735C607.342 151.251 601.776 157.969 596.052 164.875C573.144 192.482 547.76 223.074 520.783 255.581L520.388 256.058L519.929 255.647C507.218 244.28 493.897 232.365 480.335 220.235C466.772 208.098 453.451 196.176 440.74 184.803L440.281 184.393L440.676 183.917C467.7 151.434 493.127 120.869 516.07 93.2866C521.808 86.3947 527.392 79.691 532.805 73.19C535.512 69.9408 538.177 66.7404 540.798 63.5937C543.512 60.4764 546.373 57.662 549.231 54.9331C560.697 44.0762 572.424 35.3178 583.579 28.2183C594.819 21.2433 605.442 15.8882 614.899 11.6055C624.38 7.36923 632.743 4.25433 639.747 2.38539C646.742 0.511568 652.369 -0.206682 656.162 0.164663C657.096 0.343006 657.939 0.39676 658.627 0.626407C659.302 0.887814 659.903 1.03195 660.322 1.28602C661.139 1.83815 661.532 2.14109 661.532 2.14109C661.532 2.14109 661.089 1.89923 660.27 1.38863C659.851 1.15654 659.251 1.0344 658.584 0.794979C657.904 0.587319 657.066 0.553111 656.143 0.396756C652.388 0.106032 646.806 0.890244 639.858 2.8227C632.901 4.75271 624.583 7.92137 615.151 12.204C605.743 16.5356 595.16 21.9372 583.996 28.9292C572.914 36.0507 561.257 44.8188 549.874 55.6611C547.046 58.3778 544.186 61.2068 541.535 64.2704C538.921 67.4244 536.266 70.6297 533.565 73.8863C528.167 80.3995 522.596 87.1154 516.873 94.0195C493.962 121.628 468.575 152.223 441.592 184.737L441.528 183.851C454.242 195.221 467.565 207.138 481.134 219.272C494.692 231.407 508.011 243.324 520.717 254.694L519.863 254.76C546.877 222.287 572.299 191.727 595.24 164.152C600.975 157.26 606.555 150.557 611.966 144.056C617.336 137.543 622.172 130.91 626.516 124.284C635.161 111.001 641.8 97.7403 647.194 85.4273C657.654 60.623 662.803 39.3 664.369 24.4633C665.111 17.0388 664.939 11.1926 664.037 7.39855C663.566 5.50762 662.956 4.15906 662.439 3.32353C661.826 2.55885 661.532 2.14109 661.532 2.14109Z" fill="#201136"/>
<path d="M595.725 106.183C595.562 106.196 595.233 103.96 594.957 100.325C594.677 96.6896 594.477 91.6593 594.359 86.1087C594.27 80.8097 594.19 76.0116 594.122 71.9024C594.07 68.2696 594.046 66.017 594.22 66.0024C594.383 65.9877 594.712 68.2232 594.988 71.8609C595.268 75.4961 595.468 80.5288 595.586 86.0794C595.675 91.3784 595.756 96.1741 595.824 100.283C595.876 103.916 595.899 106.169 595.725 106.183Z" fill="#201136"/>
<path d="M589.41 100.584C589.074 100.616 588.487 94.8623 588.104 87.7335C587.72 80.6022 587.682 74.817 588.021 74.8097C588.36 74.8024 588.944 80.5558 589.328 87.6626C589.712 94.767 589.747 100.552 589.41 100.584Z" fill="#201136"/>
<path d="M471.485 332.909C465.898 330.876 459.645 333.104 456.464 336.774C453.283 340.443 452.878 346.392 455.532 350.486C451.007 352.416 448.075 357.54 448.174 362.616C448.273 367.693 451.178 372.503 455.308 375.227C459.438 377.951 464.641 378.672 469.434 377.658C479.052 375.623 486.767 366.286 487.233 356.11C487.699 345.937 480.874 335.882 471.485 332.909Z" fill="#FFE0CF"/>
<path d="M357.742 314.463C357.742 321.746 352.052 327.649 345.036 327.649C338.018 327.649 332.329 321.744 332.329 314.463C332.329 307.183 338.02 301.276 345.036 301.276C352.054 301.278 357.742 307.181 357.742 314.463Z" fill="#FFE0CF"/>
<path d="M280.227 228.207L286.188 224.41C286.188 224.41 293.988 217.166 296.112 215.587C298.235 214.008 306.431 210.159 307.587 210.256C308.743 210.354 320.005 209.614 322.681 208.313C325.357 207.011 328.249 205.307 328.249 205.307C328.249 205.307 330.148 207.458 328.537 210.348C326.927 213.239 318.697 218.693 318.697 218.693L321.787 239.692C321.787 239.692 314.119 245.997 309.341 246.413C304.563 246.827 299.967 245.844 298.617 246.285C297.268 246.724 293.911 247.96 293.911 247.96L280.227 228.207Z" fill="#FFBF9D"/>
<path d="M301.547 229.591L353.854 193.411L356.825 197.967L305 233.99L301.547 229.591Z" fill="#263238"/>
<path d="M330.928 218.897C330.928 218.897 334.952 220.594 332.813 224.402C330.676 228.21 327.964 227.02 327.964 227.02C327.964 227.02 328.947 231.133 324.428 233.352C324.428 233.352 324.945 237.339 321.788 239.692L319.247 241.064L317.625 237.799C317.625 237.799 308.055 236.887 306.611 232.912L306.54 230.849C306.54 230.849 304.673 229.866 304.984 227.931C305.295 225.994 305.168 225.952 308.772 224.669C312.376 223.385 320.009 224.239 320.009 224.239C320.009 224.239 315.912 222.607 315.983 220.4C316.053 218.194 317.685 216.785 322.085 217.105C326.487 217.426 330.928 218.897 330.928 218.897Z" fill="#FFBF9D"/>
<path d="M330.928 218.897C330.919 218.929 330.373 218.781 329.347 218.53C328.32 218.284 326.809 217.926 324.865 217.629C323.895 217.485 322.812 217.353 321.636 217.304C320.473 217.271 319.163 217.293 317.952 217.814C317.357 218.077 316.82 218.519 316.533 219.139C316.264 219.753 316.129 220.556 316.428 221.162C316.735 221.803 317.327 222.34 317.976 222.789C318.624 223.242 319.363 223.632 320.117 223.949L321.951 224.717L319.979 224.551C317.08 224.306 313.861 224.103 310.581 224.588C309.756 224.722 308.991 224.939 308.168 225.258C307.377 225.564 306.485 225.841 305.889 226.308C305.616 226.533 305.513 226.867 305.435 227.322L305.325 228.003C305.3 228.205 305.291 228.406 305.313 228.605C305.396 229.396 305.999 230.123 306.699 230.528L306.883 230.634L306.889 230.838C306.912 231.49 306.936 232.194 306.96 232.9L306.937 232.784C307.012 232.929 307.093 233.086 307.175 233.245C307.657 234.068 308.481 234.67 309.331 235.152C310.187 235.643 311.123 235.978 312.048 236.285C313.912 236.871 315.817 237.239 317.659 237.452L317.844 237.474L317.927 237.64C318.475 238.749 319.012 239.839 319.54 240.908L319.1 240.762C319.967 240.298 320.813 239.843 321.645 239.398L321.607 239.422C323.545 238.019 324.327 235.518 324.147 233.393L324.128 233.171L324.309 233.081C325.523 232.479 326.571 231.619 327.156 230.517C327.763 229.439 327.923 228.156 327.736 227.081L327.66 226.643L328.06 226.792C328.873 227.095 329.819 226.953 330.532 226.558C331.271 226.172 331.821 225.546 332.267 224.932C332.699 224.293 333.024 223.657 333.196 223.027C333.344 222.393 333.303 221.787 333.131 221.286C332.776 220.273 332.072 219.721 331.643 219.385C331.185 219.05 330.917 218.921 330.928 218.897C330.935 218.877 331.224 218.963 331.713 219.267C332.176 219.576 332.94 220.099 333.372 221.19C333.58 221.73 333.648 222.405 333.504 223.103C333.339 223.793 333.004 224.484 332.571 225.157C332.116 225.815 331.544 226.503 330.729 226.952C329.925 227.404 328.901 227.612 327.873 227.249L328.197 226.96C328.435 228.202 328.271 229.564 327.616 230.786C326.98 232.02 325.837 232.971 324.553 233.623L324.716 233.311C324.827 234.514 324.675 235.728 324.239 236.911C323.809 238.093 323.011 239.169 321.975 239.96L321.959 239.973L321.936 239.985C321.107 240.436 320.263 240.896 319.399 241.366L319.109 241.523L318.959 241.22C318.427 240.153 317.883 239.067 317.331 237.959L317.597 238.147C315.695 237.936 313.775 237.57 311.847 236.971C310.889 236.654 309.921 236.312 309.004 235.789C308.099 235.27 307.177 234.627 306.579 233.616C306.479 233.418 306.38 233.222 306.288 233.04L306.268 233.001L306.265 232.925C306.241 232.219 306.217 231.515 306.196 230.863L306.387 231.173C305.499 230.659 304.768 229.799 304.629 228.691C304.6 228.421 304.611 228.153 304.647 227.889L304.761 227.188C304.831 226.735 305.008 226.12 305.452 225.762C306.289 225.126 307.129 224.921 307.948 224.594C308.747 224.284 309.637 224.032 310.48 223.904C313.889 223.419 317.097 223.654 320.045 223.928L319.907 224.531C319.095 224.182 318.349 223.779 317.656 223.285C316.972 222.795 316.319 222.22 315.935 221.407C315.251 219.641 316.384 217.838 317.763 217.343C319.121 216.788 320.464 216.808 321.657 216.862C322.857 216.936 323.945 217.096 324.923 217.268C326.876 217.618 328.38 218.037 329.396 218.343C329.904 218.497 330.291 218.629 330.548 218.725C330.803 218.821 330.932 218.882 330.928 218.897Z" fill="#FF9A6C"/>
<path d="M323.319 233.457C323.224 233.669 319.788 231.637 315.071 230.918C310.359 230.143 306.501 231.017 306.471 230.786C306.452 230.702 307.388 230.371 308.965 230.138C310.539 229.904 312.763 229.824 315.176 230.204C317.587 230.589 319.688 231.354 321.123 232.066C322.561 232.777 323.361 233.384 323.319 233.457Z" fill="#FF9A6C"/>
<path d="M327.819 227.301C327.703 227.455 325.937 226.244 323.428 225.541C320.94 224.788 318.815 224.637 318.82 224.424C318.809 224.239 321.021 224.063 323.62 224.845C326.245 225.581 327.961 227.153 327.819 227.301Z" fill="#FF9A6C"/>
<path d="M99.658 16.1033C101.298 12.6357 105.231 10.521 108.893 11.1411C113.105 7.51221 119.793 7.5011 124.017 11.116C127.207 9.05135 131.443 8.87478 134.781 10.6697C138.118 12.4647 140.438 16.1644 140.675 20.0728C144.418 19.3692 148.489 21.402 150.309 24.8848C152.129 28.3677 151.559 33.0365 148.963 35.9354C153.078 37.2313 155.859 42.0447 155.037 46.4438C154.214 50.8443 149.902 54.2132 145.621 53.8016L101.507 26.7646C98.8047 24.1132 98.018 19.5708 99.658 16.1033Z" fill="#263238"/>
<path d="M146.919 55.054C144.962 34.9299 128.513 19.7499 109.121 20.167L107.194 20.2087C86.4407 21.9202 76.2421 41.256 78.4567 62.8414L82.8914 134.928L85.9194 143.94L121.671 190.656L130.683 148.571L130.855 129.031C130.855 129.031 150.766 125.363 150.602 104.533C150.521 94.4736 148.741 73.7711 146.919 55.054Z" fill="#FFBF9D"/>
<path d="M130.83 129.063C130.83 129.063 118.282 130.074 104.693 121.575C104.693 121.575 111.107 136.47 130.809 134.23L130.83 129.063Z" fill="#FF9A6C"/>
<path d="M141.514 74.465C141.599 76.0347 140.394 77.4028 138.823 77.5252C137.256 77.6462 135.915 76.4769 135.831 74.9071C135.747 73.3374 136.951 71.9679 138.519 71.8456C140.087 71.7232 141.43 72.8953 141.514 74.465Z" fill="#263238"/>
<path d="M143.073 66.3884C142.727 66.7832 140.534 65.1621 137.465 65.2372C134.398 65.265 132.178 66.9612 131.838 66.5761C131.671 66.4051 132.017 65.6974 132.983 64.9327C133.934 64.1708 135.566 63.4144 137.479 63.381C139.391 63.3518 141.014 64.0498 141.953 64.7811C142.91 65.5166 143.243 66.2118 143.073 66.3884Z" fill="#263238"/>
<path d="M115.238 76.4003C115.322 77.9701 114.118 79.3382 112.547 79.4592C110.981 79.5815 109.639 78.4108 109.554 76.8411C109.47 75.2728 110.675 73.9019 112.242 73.7795C113.813 73.6572 115.154 74.8306 115.238 76.4003Z" fill="#263238"/>
<path d="M113.703 66.5732C113.357 66.9694 111.161 65.3483 108.094 65.4234C105.029 65.4525 102.807 67.146 102.467 66.7609C102.301 66.5912 102.643 65.8836 103.614 65.1175C104.565 64.3555 106.197 63.5992 108.109 63.5658C110.021 63.5366 111.643 64.236 112.583 64.9659C113.537 65.7014 113.873 66.3966 113.703 66.5732Z" fill="#263238"/>
<path d="M124.279 90.0759C124.261 89.8938 126.162 89.5086 129.244 89.0304C130.027 88.9303 130.764 88.7509 130.886 88.1906C131.059 87.5969 130.714 86.7224 130.315 85.7797C129.539 83.8193 128.727 81.7615 127.875 79.6065C124.482 70.8152 122.009 63.5811 122.349 63.4421C122.69 63.3031 125.716 70.3147 129.11 79.106C129.927 81.2735 130.71 83.341 131.454 85.3181C131.768 86.2399 132.3 87.2827 131.924 88.5159C131.726 89.1305 131.159 89.5865 130.659 89.7381C130.16 89.9091 129.719 89.9272 129.332 89.9591C126.224 90.1997 124.295 90.2553 124.279 90.0759Z" fill="#263238"/>
<path d="M115.291 92.4827C115.79 92.441 115.865 95.9155 118.765 98.3194C121.661 100.732 125.203 100.266 125.239 100.751C125.29 100.968 124.462 101.442 122.963 101.517C121.494 101.602 119.338 101.156 117.563 99.6848C115.794 98.2096 115.006 96.2075 114.865 94.7851C114.709 93.335 115.063 92.4674 115.291 92.4827Z" fill="#263238"/>
<path d="M113.561 57.4316C113.213 58.27 110.554 57.5818 107.343 57.7055C104.131 57.7528 101.471 58.5842 101.125 57.7639C100.973 57.3718 101.495 56.6043 102.609 55.8716C103.713 55.1403 105.422 54.5132 107.347 54.459C109.273 54.4103 110.981 54.9456 112.082 55.6186C113.194 56.2915 113.715 57.0326 113.561 57.4316Z" fill="#263238"/>
<path d="M142.203 57.6262C141.738 58.4076 139.56 57.882 137.027 58.1198C134.487 58.2644 132.403 59.1069 131.836 58.4048C131.584 58.0614 131.85 57.2995 132.718 56.5153C133.572 55.7339 135.06 55.0109 136.803 54.8788C138.546 54.7495 140.118 55.2431 141.071 55.8896C142.038 56.5348 142.404 57.2494 142.203 57.6262Z" fill="#263238"/>
<path d="M144.81 45.5439C144.81 45.5439 139.285 32.6149 133.194 29.7021C125.821 26.1747 122.842 34.599 115.845 32.7206C108.847 30.8422 101.807 27.4566 94.8074 33.2183C87.146 39.525 90.878 43.7531 90.5794 53.0032C89.37 90.5083 83.0194 101.243 80.8034 83.6371C80.5607 81.7087 75.3861 80.2808 74.4607 72.1305C73.2634 61.5595 72.6181 48.7084 74.7367 41.1434C76.5221 34.7672 79.8994 30.3152 86.0167 25.3558C95.6727 17.5267 109.138 17.0748 118.303 17.8381C127.469 18.6 145.321 29.196 144.81 45.5439Z" fill="#263238"/>
<path d="M82.0661 83.0421C81.8768 79.8304 79.1714 77.35 76.1061 77.7198C72.3888 78.1689 68.2874 80.463 68.6914 88.484C69.4088 102.712 82.9594 99.0258 82.9621 98.617C82.9647 98.3403 82.4168 88.9943 82.0661 83.0421Z" fill="#FFBF9D"/>
<path d="M79.7234 93.4267C79.6607 93.385 79.494 93.6145 79.102 93.8272C78.7207 94.0357 78.0527 94.2012 77.3274 93.9621C75.8581 93.4893 74.5234 91.1702 74.3287 88.6091C74.2287 87.3161 74.4274 86.0689 74.8154 85.0248C75.1794 83.9611 75.7874 83.1992 76.5074 83.024C77.2207 82.8099 77.7567 83.2354 77.9447 83.6261C78.1474 84.014 78.0754 84.3018 78.1487 84.3227C78.1887 84.356 78.4287 84.0682 78.29 83.4856C78.2194 83.2062 78.042 82.8795 77.7087 82.6236C77.3674 82.3636 76.8781 82.2482 76.3767 82.333C75.3287 82.4665 74.4327 83.5274 74.0047 84.6744C73.5207 85.8298 73.2687 87.2327 73.3807 88.6856C73.6127 91.5484 75.1554 94.1539 77.1581 94.6405C78.1314 94.8491 78.9167 94.5043 79.3127 94.1456C79.7167 93.7729 79.7714 93.4504 79.7234 93.4267Z" fill="#FF9A6C"/>
<path d="M81.7875 55.452C83.5862 56.6755 85.4848 57.9365 87.6261 58.1117C89.7675 58.2869 92.1848 56.9536 92.5021 54.7387C92.6448 53.7446 92.3901 52.5989 92.9995 51.8203C93.7275 50.8902 95.1088 51.1474 96.2555 51.2489C100.234 51.6034 104.241 48.5877 105.173 44.539C106.217 46.0976 108.578 45.978 110.09 44.9158C111.602 43.8535 112.555 42.1462 113.726 40.689C114.897 39.2319 116.554 37.9153 118.365 38.1433C119.377 38.2712 120.334 38.8774 121.347 38.762C123.138 38.5576 123.97 36.3483 124.203 34.488C124.438 32.6263 124.607 30.4574 126.105 29.416C127.494 28.4511 129.327 28.953 130.983 29.1699C132.639 29.3882 134.762 28.9377 135.151 27.2456C135.355 26.3572 134.974 25.4367 134.489 24.6762C132.294 21.2323 127.627 19.7807 123.981 21.4103C122.551 16.7345 118.261 13.164 113.57 12.7497C108.881 12.3353 104.074 15.1022 101.911 19.461C98.9715 16.7929 94.7555 15.7362 90.9741 16.7219C87.1928 17.7063 83.9488 20.7067 82.5582 24.5024C79.2182 23.6626 75.4595 25.0836 73.4115 27.9589C71.3635 30.8342 71.1462 34.9983 72.8822 38.0891C70.4569 39.6032 68.4062 42.192 68.4129 45.141C68.4195 48.0886 71.2315 50.9666 73.9435 50.1324C72.8875 52.4502 73.8448 55.5451 76.0022 56.7811C78.1595 58.0172 81.1795 57.201 82.4888 55.0293" fill="#263238"/>
<path d="M72.9421 50.1212C72.8941 50.0837 72.7141 51.3238 73.8461 52.8393C74.4061 53.5582 75.3541 54.2978 76.6154 54.4828C77.8488 54.6718 79.3514 54.3243 80.4847 53.2189L79.9061 53.1411C80.6061 54.3521 81.5221 55.5811 82.7021 56.6336C83.4621 57.3038 84.3007 57.8697 85.2221 58.1922C86.1247 58.5454 87.146 58.5593 87.9754 58.4008C89.702 58.1644 91.1927 57.1634 91.8687 55.9593C92.574 54.7817 92.782 53.6958 92.9154 52.9728C93.0394 52.2415 93.0447 51.8299 92.998 51.8202C92.938 51.8077 92.8314 52.2012 92.618 52.8963C92.4007 53.5818 92.1047 54.6107 91.41 55.6312C90.1567 57.7015 85.9607 58.8346 83.2087 56.008C82.1127 55.0333 81.2274 53.871 80.5434 52.7365L80.2941 52.3221L79.9634 52.6586C79.0447 53.5915 77.7607 53.9433 76.6928 53.8237C75.6088 53.7139 74.7514 53.1285 74.1941 52.5182C73.0754 51.2446 73.0608 50.0823 72.9421 50.1212Z" fill="#455A64"/>
<path d="M98.0993 17.0501C98.0927 17.1002 98.4567 17.1419 99.0727 17.3977C99.6727 17.6563 100.563 18.1735 101.23 19.2316L101.398 19.4999L101.582 19.2316C102.823 17.4199 104.918 15.0786 108.074 13.5158C109.643 12.7497 111.471 12.2075 113.426 12.1699C115.37 12.1185 117.418 12.6593 119.242 13.7688C120.661 14.6281 121.862 15.789 122.753 17.0974C123.625 18.421 124.17 19.8976 124.339 21.3575L124.391 21.8066L124.803 21.6786C126.843 21.046 128.942 21.4173 130.493 22.2765C132.066 23.1357 133.083 24.4747 133.665 25.6787C134.815 28.1591 134.459 29.9013 134.599 29.8776C134.63 29.8818 134.735 29.48 134.742 28.7097C134.741 27.9464 134.626 26.7952 134.062 25.4813C133.507 24.1855 132.466 22.6992 130.782 21.7204C129.127 20.7471 126.863 20.2883 124.598 20.9543L125.061 21.2754C124.899 19.6849 124.318 18.0707 123.386 16.6386C122.435 15.2218 121.153 13.9774 119.638 13.0584C117.695 11.8738 115.487 11.301 113.409 11.376C111.329 11.4344 109.406 12.0365 107.778 12.8679C104.505 14.5655 102.414 17.0585 101.231 18.9813H101.583C100.793 17.8538 99.802 17.3768 99.1487 17.1752C98.4753 16.9792 98.0993 17.0181 98.0993 17.0501Z" fill="#455A64"/>
<path d="M54.0822 451.899L54.5635 377.031L64.6661 349.72L64.6795 342.352L178.785 340.356V348.94L191.88 382.884L192.579 451.899H126.67L121.165 420.73L119.893 451.899H54.0822Z" fill="#263238"/>
<path d="M82.5992 129.115L106.415 148.569L121.498 168.539L127.014 147.836L130.966 131.598L137.452 138.308L153.892 174.813L172.383 351.262C172.383 351.262 140.13 361.112 123.424 362.307C106.719 363.501 80.0965 358.725 80.0965 358.725V265.889L70.6152 173.948L82.0525 138.718L82.5992 129.115Z" fill="#F5F5F5"/>
<path d="M130.726 361.128C130.714 361.128 130.698 360.961 130.679 360.633C130.662 360.269 130.639 359.787 130.611 359.18C130.565 357.858 130.499 355.982 130.415 353.589C130.257 348.69 130.03 341.677 129.751 333.027C129.174 315.666 128.258 291.687 126.949 265.219C125.631 238.742 124.169 214.79 123.025 197.461C122.446 188.828 121.978 181.829 121.65 176.939C121.497 174.551 121.377 172.678 121.291 171.358C121.259 170.749 121.234 170.27 121.215 169.905C121.202 169.577 121.201 169.409 121.213 169.409C121.225 169.408 121.249 169.574 121.286 169.9C121.322 170.263 121.37 170.741 121.43 171.347C121.546 172.664 121.71 174.532 121.919 176.918C122.333 181.757 122.881 188.764 123.514 197.426C124.783 214.75 126.325 238.702 127.642 265.184C128.953 291.658 129.79 315.645 130.242 333.013C130.47 341.697 130.619 348.726 130.686 353.584C130.714 355.979 130.735 357.855 130.751 359.178C130.751 359.787 130.751 360.269 130.751 360.634C130.746 360.96 130.738 361.128 130.726 361.128Z" fill="#263238"/>
<path d="M78.894 138.291L73.382 146.204L28.2808 170.958L53.382 250.783L60.1434 295.554L34.7887 401.909C34.7887 401.909 65.5527 412.947 68.258 409.421C69.3953 407.939 72.6233 400.286 75.9846 391.916C82.678 375.241 87.0313 357.655 88.9006 339.684C90.7833 321.577 92.5113 298.497 91.2473 282.864C88.8806 253.604 85.162 205.308 84.8233 192.617C84.486 179.926 82.3326 132.008 82.3326 132.008L78.894 138.291Z" fill="#967CBC"/>
<path d="M134.151 133.588L149.078 142.676L197.398 159.236L193.53 194.874L191.312 287.095L206.526 397.789C206.526 397.789 190.299 403.781 183.875 401.314C177.452 398.846 168.662 383.687 168.324 374.521C167.986 365.356 155.478 276.519 155.478 276.519L143.307 157.011L134.151 133.588Z" fill="#967CBC"/>
<path d="M149.998 142.626C150.014 142.614 150.22 142.857 150.604 143.337C151.016 143.864 151.571 144.571 152.275 145.471C153.751 147.399 155.847 150.137 158.476 153.573L158.608 153.745L158.436 153.881C156.867 155.124 155.094 156.528 153.18 158.043L153.107 157.589C155.024 158.222 157.095 158.906 159.275 159.625L159.47 159.689L159.467 159.903C159.35 171.368 159.202 185.801 159.042 201.448C158.775 220.546 158.532 237.831 158.356 250.413C158.236 256.633 158.138 261.686 158.07 265.249C158.022 266.955 157.984 268.304 157.956 269.283C157.938 269.708 157.922 270.053 157.91 270.331C157.895 270.568 157.882 270.689 157.87 270.689C157.858 270.689 157.847 270.568 157.839 270.331C157.834 270.052 157.826 269.707 157.818 269.282C157.814 268.301 157.807 266.954 157.8 265.247C157.816 261.682 157.839 256.628 157.867 250.407C157.991 237.826 158.16 220.539 158.348 201.44C158.562 185.794 158.758 171.361 158.914 159.896L159.106 160.174C156.932 159.434 154.867 158.731 152.955 158.081L152.496 157.926L152.882 157.628C154.812 156.138 156.6 154.756 158.184 153.532L158.146 153.841C155.58 150.352 153.536 147.573 152.096 145.615C151.428 144.687 150.903 143.955 150.512 143.412C150.159 142.907 149.982 142.639 149.998 142.626Z" fill="#263238"/>
<path d="M89.8739 267.699C89.8619 267.702 89.8192 267.585 89.7446 267.354C89.6592 267.083 89.5539 266.745 89.4219 266.327C89.1246 265.37 88.7126 264.05 88.1926 262.377C87.1139 258.95 85.5112 254.004 83.4552 247.921C82.4112 244.879 81.2712 241.555 80.0473 237.987C78.7779 234.435 77.6126 230.535 76.5819 226.401C74.5766 218.109 73.0459 208.842 71.7379 199.088C70.0646 186.38 68.9819 174.397 68.3233 164.089L68.314 163.943L68.414 163.843C70.278 161.969 72.0473 160.191 73.7286 158.499L73.7553 158.937C71.9686 157.518 70.2953 156.192 68.7166 154.938L68.5193 154.782L68.6646 154.578C72.482 149.18 75.5819 144.798 77.7633 141.714C78.8246 140.24 79.6619 139.078 80.2659 138.238C80.5379 137.874 80.7566 137.581 80.9313 137.346C81.0846 137.147 81.1673 137.048 81.1779 137.056C81.1873 137.063 81.1246 137.177 80.9899 137.39C80.8299 137.636 80.6299 137.945 80.3819 138.326C79.8033 139.185 79.0019 140.374 77.9859 141.882C75.8473 145 72.8086 149.429 69.0673 154.884L69.0153 154.524C70.606 155.762 72.2886 157.075 74.0873 158.476L74.346 158.678L74.1139 158.914C72.4433 160.618 70.686 162.408 68.834 164.296L68.9246 164.05C69.6393 174.333 70.7539 186.306 72.4246 198.99C73.7299 208.728 75.2393 217.977 77.2019 226.24C78.2139 230.368 79.3419 234.218 80.5886 237.787C81.7846 241.366 82.8992 244.703 83.9179 247.756C85.9152 253.864 87.4472 258.838 88.4486 262.295C88.9499 264.023 89.3179 265.372 89.5552 266.289C89.6592 266.716 89.7432 267.061 89.8112 267.338C89.8646 267.573 89.8859 267.696 89.8739 267.699Z" fill="#263238"/>
<path opacity="0.3" d="M51.142 333.55L77.3792 344.281L79.1286 338.184L88.0419 346.685L89.6405 331.909L81.4166 315.915L53.0633 325.493L51.142 333.55Z" fill="black"/>
<path d="M140.279 333.34L129.631 326.601L120.277 317.761C120.277 317.761 123.169 320.365 127.554 321.889C131.939 323.413 134.411 319.215 134.411 319.215C134.411 319.215 130.575 316.69 129.259 315.928C127.943 315.166 114.666 304.84 111.305 304.078C107.943 303.316 85.746 298.595 85.746 298.595L85.394 299.792L74.4233 324.177L84.174 326.907C84.174 326.907 86.9513 330.869 89.1433 335.442C91.3353 340.015 101.974 344.523 106.073 346.764C110.171 349.007 114.798 345.082 114.798 345.082C119.503 346.206 120.667 340.931 120.667 340.931C126.075 340.169 126.537 334.03 126.537 334.03C126.537 334.03 136.355 337.998 139.382 338.555C140.618 338.783 141.273 338.16 141.613 337.333C142.213 335.869 141.583 334.166 140.279 333.34Z" fill="#FFBF9D"/>
<path d="M126.535 334.028C126.459 334.192 123.63 333.013 120.329 331.121C117.011 329.237 114.671 327.132 114.797 326.979C114.917 326.823 117.39 328.628 120.666 330.488C123.931 332.36 126.627 333.834 126.535 334.028Z" fill="#FF9A6C"/>
<path d="M109.278 333.125C109.381 332.937 112.182 334.565 115.397 336.906C118.611 339.242 121.243 341.068 121.155 341.235C121.058 341.418 118.227 339.846 115.005 337.503C111.789 335.161 109.19 333.284 109.278 333.125Z" fill="#FF9A6C"/>
<path d="M105.05 337.835C105.179 337.704 107.229 339.49 109.982 341.418C112.723 343.363 114.914 345.032 114.797 345.208C114.695 345.36 112.351 343.975 109.586 342.013C106.805 340.064 104.901 337.981 105.05 337.835Z" fill="#FF9A6C"/>
<path d="M107.781 308.034C107.798 307.952 108.729 308.055 110.153 308.568C111.575 309.074 113.458 310.067 115.266 311.547C117.074 313.03 118.465 314.652 119.374 315.887C120.283 317.126 120.737 317.967 120.666 318.021C120.481 318.177 118.35 315.012 114.838 312.119C111.338 309.169 107.714 308.244 107.781 308.034Z" fill="#FF9A6C"/>
<path d="M5.0595 304.733C2.23551 302.899 0.484846 299.722 0.363513 296.256C0.25418 293.157 0.388854 288.541 1.16352 281.813C3.03685 265.532 28.5955 170.997 28.5955 170.997L54.2941 244.669L45.4701 276.744L90.442 299.198L77.922 336.045C77.922 336.045 18.1661 313.242 5.0595 304.733Z" fill="#967CBC"/>
<path d="M197.398 159.236L238.672 241.064L239.782 242.744L284.793 218.782L299.619 250.05L239.051 288.399C232.151 292.691 223.235 290.6 218.763 283.64L191.994 241.978L184.794 207.734L197.398 159.236Z" fill="#967CBC"/>
<path d="M192.26 182.577C192.284 182.577 192.311 182.932 192.34 183.607C192.364 184.354 192.395 185.337 192.435 186.565C192.482 189.215 192.546 192.912 192.626 197.446C192.738 206.633 192.784 219.329 192.655 233.349C192.524 247.374 192.244 260.066 191.962 269.251C191.799 273.782 191.666 277.478 191.571 280.125C191.51 281.351 191.46 282.334 191.422 283.08C191.38 283.755 191.347 284.11 191.323 284.109C191.299 284.109 191.286 283.753 191.282 283.075C191.287 282.329 191.292 281.346 191.3 280.117C191.342 277.468 191.4 273.771 191.471 269.239C191.628 260.052 191.831 247.363 191.962 233.342C192.09 219.327 192.122 206.636 192.135 197.448C192.148 192.914 192.158 189.218 192.166 186.567C192.18 185.338 192.192 184.355 192.202 183.609C192.216 182.933 192.236 182.577 192.26 182.577Z" fill="#263238"/>
<path d="M38.558 191.462C38.5807 191.455 38.6794 191.74 38.8434 192.287C39.022 192.912 39.25 193.708 39.5314 194.693C40.1247 196.878 40.9434 199.89 41.9447 203.573C43.9514 211.08 46.7047 221.459 49.502 232.99C52.2967 244.528 54.5113 255.055 55.9047 262.716C56.6033 266.547 57.1287 269.654 57.446 271.809C57.5913 272.826 57.71 273.649 57.802 274.293C57.8753 274.861 57.9033 275.162 57.8793 275.166C57.8553 275.17 57.782 274.878 57.6633 274.316C57.538 273.679 57.3767 272.865 57.178 271.858C56.746 269.632 56.15 266.566 55.422 262.816C53.9073 255.189 51.618 244.696 48.8273 233.167C46.0327 221.644 43.3553 211.248 41.47 203.707C40.558 199.998 39.8114 196.966 39.27 194.766C39.0394 193.767 38.854 192.958 38.7074 192.325C38.5874 191.765 38.5354 191.467 38.558 191.462Z" fill="#263238"/>
<path d="M19.9528 312.302C19.9568 312.293 20.0554 312.322 20.2448 312.39C20.4648 312.472 20.7408 312.575 21.0861 312.703C21.8621 313.006 22.9434 313.429 24.3248 313.968C27.1834 315.114 31.2807 316.754 36.4101 318.809C46.7514 323.01 61.2447 328.898 78.0433 335.722L77.6086 335.929C80.2246 328.216 83.0579 319.86 85.9939 311.205C87.3979 307.077 88.7779 303.017 90.1179 299.077L90.2926 299.519C73.0433 290.835 57.6167 283.068 45.842 277.141L45.874 277.154C42.114 275.911 38.4927 275.573 35.3754 275.901C32.2487 276.19 29.6421 277.077 27.6061 277.959C25.5661 278.86 24.0928 279.801 23.0968 280.432C22.6341 280.751 22.2661 281.001 21.9861 281.194C21.7341 281.364 21.6008 281.446 21.5941 281.436C21.5874 281.426 21.7061 281.325 21.9448 281.134C22.2168 280.926 22.5714 280.655 23.0194 280.311C23.9954 279.637 25.4554 278.65 27.4981 277.7C29.5381 276.77 32.1634 275.83 35.3367 275.498C38.4981 275.127 42.1887 275.433 46.022 276.666L46.038 276.671L46.054 276.68C57.8513 282.558 73.3073 290.261 90.5899 298.874L90.8686 299.013L90.7646 299.318C89.4273 303.258 88.0486 307.319 86.6473 311.447C83.702 320.098 80.8593 328.451 78.2339 336.161L78.118 336.5L77.798 336.368C61.0367 329.448 46.574 323.477 36.2554 319.215C31.1567 317.081 27.0834 315.376 24.2408 314.186C22.8768 313.601 21.8088 313.143 21.0421 312.815C20.7061 312.665 20.4368 312.544 20.2221 312.448C20.0408 312.361 19.9488 312.312 19.9528 312.302Z" fill="#263238"/>
<path d="M240.095 241.907C240.179 241.905 240.296 243.136 240.204 245.127C240.123 247.118 239.759 249.853 239.16 252.814C238.564 255.777 237.958 258.43 237.554 260.36C237.144 262.288 236.896 263.485 236.796 263.47C236.707 263.457 236.783 262.228 237.071 260.265C237.354 258.302 237.887 255.616 238.48 252.667C239.076 249.718 239.51 247.04 239.715 245.084C239.93 243.13 239.987 241.907 240.095 241.907Z" fill="#263238"/>
<path d="M240.095 243.884C240.283 243.944 239.384 247.311 237.919 251.317C236.455 255.32 235.271 258.554 235.092 258.497C234.904 258.437 235.803 255.071 237.269 251.062C238.732 247.061 239.916 243.825 240.095 243.884Z" fill="#263238"/>
<path d="M120.936 167.796C120.907 167.827 120.463 167.404 119.67 166.602C118.808 165.709 117.686 164.544 116.318 163.126C113.418 160.036 109.491 155.854 104.995 151.063L105.487 151.046C104.067 152.776 103.054 155.067 102.567 157.525C102.307 158.807 102.221 160.102 102.287 161.314L102.333 162.129L101.73 161.62C96.0019 156.779 91.3632 152.031 87.8912 148.788C86.1686 147.152 84.7739 145.852 83.8032 144.968C82.8352 144.081 82.3032 143.594 82.3326 143.555C82.3579 143.522 82.9432 143.94 83.9632 144.767C84.9859 145.591 86.4312 146.839 88.1966 148.43C91.7525 151.579 96.4632 156.273 102.157 161.056L101.599 161.361C101.523 160.077 101.615 158.718 101.886 157.378C102.397 154.809 103.453 152.42 104.979 150.582L105.222 150.29L105.471 150.564C109.899 155.426 113.767 159.671 116.623 162.806C117.934 164.284 119.01 165.498 119.835 166.429C120.575 167.286 120.966 167.767 120.936 167.796Z" fill="#263238"/>
<path d="M136.086 141.417C136.122 141.418 136.145 141.807 136.141 142.529C136.135 143.249 136.099 144.302 136.002 145.625C135.809 148.27 135.345 152.007 134.323 156.273L134.114 157.146L133.718 156.342C132.659 154.194 131.191 151.997 129.33 150.029C128.829 149.498 128.31 148.996 127.806 148.542L128.367 148.346C127.146 154.041 125.574 158.98 124.273 162.449C123.623 164.185 123.054 165.562 122.635 166.499C122.217 167.436 121.961 167.937 121.921 167.919C121.878 167.899 122.055 167.362 122.399 166.396C122.783 165.295 123.262 163.92 123.833 162.279C125.014 158.781 126.497 153.851 127.693 148.191L127.817 147.604L128.255 147.995C128.775 148.459 129.309 148.975 129.825 149.521C131.739 151.546 133.235 153.816 134.298 156.035L133.693 156.105C134.751 151.893 135.299 148.202 135.603 145.585C135.907 142.963 136.003 141.413 136.086 141.417Z" fill="#263238"/>
<path d="M177.151 326.925L181.18 339.985L203.993 337.786L196.88 325.308L177.151 326.925Z" fill="#967CBC"/>
<path d="M177.151 326.925C177.123 326.905 177.596 326.844 178.509 326.744C179.527 326.638 180.861 326.501 182.503 326.331C185.955 325.985 190.933 325.496 196.855 324.983L197.048 324.966L197.148 325.141C199.313 328.919 201.733 333.141 204.291 337.6L204.573 338.092L204.025 338.145C203.655 338.181 203.255 338.219 202.853 338.258C194.649 339.018 187.113 339.716 181.205 340.264L180.987 340.285L180.923 340.069C179.697 335.99 178.744 332.664 178.097 330.395C177.8 329.337 177.557 328.475 177.365 327.795C177.204 327.21 177.128 326.908 177.151 326.925C177.173 326.94 177.293 327.272 177.501 327.883C177.732 328.57 178.024 329.441 178.383 330.511C179.141 332.842 180.18 336.032 181.439 339.9L181.156 339.705C187.061 339.114 194.591 338.361 202.791 337.54C203.192 337.501 203.592 337.464 203.963 337.428L203.696 337.973C201.16 333.5 198.76 329.265 196.612 325.477L196.905 325.636C191.132 326.081 186.245 326.399 182.757 326.622C181.076 326.725 179.711 326.808 178.669 326.872C177.709 326.922 177.179 326.944 177.151 326.925Z" fill="#263238"/>
<path d="M187.468 223.358H162.957V231.604H187.468V223.358Z" fill="#967CBC"/>
<path d="M187.468 231.604C187.452 231.587 187.438 231.382 187.422 231.001C187.406 230.547 187.388 230.007 187.366 229.355C187.335 227.849 187.292 225.836 187.242 223.358L187.467 223.593C181.63 223.671 172.806 223.719 162.958 223.719C163.113 223.558 162.61 224.081 163.303 223.358V223.359V223.363V223.372V223.388V223.422V223.489V223.622V223.89V224.424V225.484C163.303 226.187 163.302 226.884 163.302 227.574C163.299 228.951 163.297 230.297 163.294 231.603L162.958 231.252C169.939 231.27 176.014 231.346 180.387 231.415C182.504 231.455 184.236 231.489 185.546 231.514C186.762 231.546 187.439 231.575 187.468 231.604C187.498 231.633 186.874 231.663 185.699 231.695C184.41 231.72 182.704 231.753 180.618 231.793C176.262 231.863 170.08 231.936 162.957 231.956L162.621 231.957V231.606C162.618 230.301 162.615 228.954 162.613 227.576C162.611 226.887 162.611 226.19 162.61 225.487V224.427V223.893V223.625V223.491V223.425V223.391V223.375V223.366V223.362C163.303 222.638 162.803 223.159 162.959 222.998C172.807 222.998 181.631 223.046 187.468 223.124L187.699 223.127L187.694 223.359C187.643 225.895 187.602 227.954 187.57 229.496C187.528 230.902 187.499 231.636 187.468 231.604Z" fill="#263238"/>
<path opacity="0.3" d="M159.192 159.9L162.958 165.311C162.958 165.311 161.907 247.372 157.908 267.749L159.192 159.9Z" fill="black"/>
</svg>
